<?xml version="1.0" standalone="no"?>
<!DOCTYPE svg PUBLIC "-//W3C//DTD SVG 20010904//EN"
 "http://www.w3.org/TR/2001/REC-SVG-20010904/DTD/svg10.dtd">
<svg version="1.0" xmlns="http://www.w3.org/2000/svg"
 width="1024.000000pt" height="1024.000000pt" viewBox="0 0 1024.000000 1024.000000"
 preserveAspectRatio="xMidYMid meet">
<metadata>
Created by potrace 1.11, written by Peter Selinger 2001-2013
</metadata>
<g transform="translate(0.000000,1024.000000) scale(0.100000,-0.100000)"
fill="#000000" stroke="none">
<path d="M5285 9549 c-665 -59 -1282 -304 -1800 -715 -140 -112 -406 -377
-517 -517 -401 -505 -639 -1089 -714 -1751 -3 -22 -7 -208 -10 -413 l-4 -372
-89 -233 c-49 -128 -94 -244 -99 -258 -6 -14 -31 -79 -56 -145 -64 -174 -195
-517 -206 -540 -23 -52 -144 -376 -157 -420 -17 -59 -11 -150 13 -198 28 -55
95 -116 152 -137 50 -19 78 -20 472 -20 l420 0 1 -477 c1 -263 3 -494 5 -513
33 -300 220 -558 497 -685 157 -72 136 -70 881 -70 l670 0 167 -663 c92 -364
175 -674 184 -688 37 -57 -43 -54 1590 -54 1473 0 1507 0 1544 20 38 19 71 68
71 105 0 10 -18 90 -39 179 -57 233 -149 656 -165 756 -3 19 -10 58 -15 85
-37 178 -107 618 -126 790 -3 28 -9 86 -15 130 -5 44 -12 116 -16 160 -3 44
-8 87 -9 95 -18 94 -26 625 -13 825 13 200 77 438 230 860 107 294 109 300
200 495 113 240 214 570 251 820 43 288 44 683 1 955 -76 485 -279 969 -572
1365 -113 153 -182 232 -322 370 -425 420 -946 695 -1540 814 -78 15 -102 19
-235 37 -107 14 -505 19 -630 8z m505 -264 c90 -6 105 -8 215 -24 181 -27 358
-74 549 -146 279 -104 563 -272 798 -472 79 -67 302 -295 367 -376 195 -242
378 -572 477 -858 61 -178 120 -441 141 -629 10 -97 10 -491 0 -595 -9 -88
-44 -299 -54 -330 -4 -11 -8 -27 -9 -35 -6 -39 -56 -206 -92 -305 -43 -118
-57 -153 -120 -285 -107 -227 -287 -734 -362 -1025 -60 -234 -73 -359 -72
-715 1 -135 3 -270 6 -300 3 -30 7 -95 11 -145 14 -209 49 -518 86 -755 6 -36
12 -76 14 -90 30 -216 130 -730 210 -1080 19 -85 35 -159 35 -165 0 -10 -2674
-15 -2684 -5 -3 3 -7 17 -10 30 -2 14 -59 241 -126 505 -67 264 -123 487 -125
495 -16 82 -78 299 -91 317 -36 55 -26 55 -803 52 l-716 -2 -73 26 c-41 14
-99 41 -129 59 -73 43 -171 152 -211 232 -62 124 -63 141 -65 776 -2 535 -3
577 -20 601 -36 53 -44 54 -561 54 -338 0 -480 3 -483 11 -3 9 478 1284 577
1529 l33 80 3 255 c4 327 12 563 19 620 65 515 222 941 499 1355 33 49 65 96
70 103 6 7 16 18 21 25 6 7 18 24 28 40 17 27 18 27 44 10 18 -12 55 -20 107
-23 l81 -5 1 -364 c0 -246 -3 -364 -10 -366 -6 -2 -43 -5 -82 -8 -87 -5 -128
-29 -145 -87 -24 -78 15 -149 91 -170 20 -5 183 -9 364 -9 181 0 330 -2 333
-4 2 -3 -1 -26 -7 -53 -12 -51 -15 -540 -5 -591 38 -183 105 -281 235 -342
l55 -26 1795 -3 c1787 -2 1795 -2 1828 18 59 36 78 118 42 177 -30 49 -59 63
-138 66 l-72 2 0 378 0 377 33 1 c109 2 142 15 178 72 24 39 21 102 -7 140
-40 55 -52 56 -418 56 -186 0 -340 1 -342 3 -2 3 3 36 11 74 22 100 20 553 -2
627 -47 160 -140 247 -303 284 -69 15 -210 17 -1757 17 -926 0 -1683 3 -1683
7 0 9 181 176 250 230 30 24 57 46 60 50 3 3 46 35 95 71 168 122 412 258 610
341 122 51 377 134 465 151 14 2 57 11 95 19 39 9 106 20 150 27 44 6 91 13
105 16 14 2 79 7 145 10 66 4 121 8 123 9 4 4 230 -3 322 -10z m974 -1199 c91
-28 98 -48 100 -316 3 -295 -11 -366 -77 -398 -22 -11 -311 -13 -1504 -13
-813 0 -1515 1 -1560 1 l-82 0 1 370 0 370 1539 0 c1260 -1 1547 -3 1583 -14z
m566 -996 l66 0 -2 -372 c0 -205 -2 -376 -3 -379 -2 -9 -3123 -4 -3141 4 -26
13 -50 54 -64 109 -10 39 -13 118 -12 298 1 323 4 328 186 339 52 3 727 5
1500 4 773 -2 1434 -3 1470 -3z"/>
<path d="M3779 7847 c-83 -56 -81 -172 5 -223 30 -17 83 -18 1251 -18 1176 0
1221 1 1252 19 73 43 85 148 24 209 l-31 31 -1234 3 -1233 2 -34 -23z"/>
<path d="M4762 6853 c-103 -42 -98 -204 6 -244 14 -5 534 -9 1235 -9 1149 0
1212 1 1245 18 40 21 72 73 72 117 0 37 -30 88 -67 112 -26 17 -88 18 -1244
18 -938 0 -1224 -3 -1247 -12z"/>
</g>
</svg>
